# xmcd
#
# Track frame offsets:
#	150
#	10092
#	20825
#	31544
#	42973
#	52691
#	64568
#	73892
#	85673
#	96547
#	106925
#	117752
#	127092
#	137850
#	147053
#	158244
#
# Disc length: 2248 seconds
#
# Revision: 1
# Processed by: cddbd v1.5.2PL0 Copyright (c) Steve Scherf et al.
# Submitted via: audiograbber 1.83.01
#
DISCID=d208c610
DTITLE=George Jones - The Lone Star Legend
DYEAR=1986
DGENRE=Country
TTITLE0=All I Want To Do
TTITLE1=Giveaway Girl
TTITLE2=Flame In My Heart
TTITLE3=Hearts In My Dreams
TTITLE4=Into My Arms Again
TTITLE5=Cup Of Loneliness
TTITLE6=Still Hurtin'
TTITLE7=Let Him Know
TTITLE8=With Half A Heart
TTITLE9=Someone Sweet To Love
TTITLE10=I've Been Known To Cry
TTITLE11=Holiday For Love
TTITLE12=Your Old Standby
TTITLE13=Vitamins L-O-V-E
TTITLE14=Mr Fool
TTITLE15=The Last Town I Painted
EXTD=
EXTT0=
EXTT1=
EXTT2=
EXTT3=
EXTT4=
EXTT5=
EXTT6=
EXTT7=
EXTT8=
EXTT9=
EXTT10=
EXTT11=
EXTT12=
EXTT13=
EXTT14=
EXTT15=
PLAYORDER=
